<?xml version="1.0" encoding="us-ascii" standalone="no"?><svg xmlns="http://www.w3.org/2000/svg" xmlns:xlink="http://www.w3.org/1999/xlink" contentStyleType="text/css" height="575px" preserveAspectRatio="none" style="width:956px;height:575px;background:#FFFFFF;" version="1.1" viewBox="0 0 956 575" width="956px" zoomAndPan="magnify"><defs/><g><!--cluster Referentiegroep--><g id="cluster_Referentiegroep"><path d="M19.5,230 L685.5,230 A12.5,12.5 0 0 1 698,242.5 L698,251.2969 L7,251.2969 L7,242.5 A12.5,12.5 0 0 1 19.5,230 " fill="#6495ED" style="stroke:#6495ED;stroke-width:1.0;"/><rect fill="none" height="339" rx="12.5" ry="12.5" style="stroke:#181818;stroke-width:0.5;" width="691" x="7" y="230"/><line style="stroke:#181818;stroke-width:0.5;" x1="7" x2="698" y1="251.2969" y2="251.2969"/><text fill="#000000" font-family="sans-serif" font-size="14" lengthAdjust="spacing" textLength="121" x="292" y="246.9951">Referentiegroep</text></g><g id="Referentiegroep.Bespreken"><rect fill="#ADD8E6" height="64.2344" rx="12.5" ry="12.5" style="stroke:#181818;stroke-width:0.5;" width="212" x="23" y="265"/><line style="stroke:#181818;stroke-width:0.5;" x1="23" x2="235" y1="291.2969" y2="291.2969"/><text fill="#000000" font-family="sans-serif" font-size="14" lengthAdjust="spacing" textLength="78" x="90" y="282.9951">Bespreken</text><text fill="#000000" font-family="sans-serif" font-size="12" lengthAdjust="spacing" textLength="188" x="28" y="307.4355">Wijzigingsverzoek (in concept)</text><text fill="#000000" font-family="sans-serif" font-size="12" lengthAdjust="spacing" textLength="131" x="28" y="321.4043">voor Referentiegroep</text></g><g id="elem_refgrp"><polygon fill="#F1F1F1" points="304,285,316,297,304,309,292,297,304,285" style="stroke:#181818;stroke-width:0.5;"/></g><g id="Referentiegroep.uitwerken"><rect fill="#FFFFE0" height="50.2656" rx="12.5" ry="12.5" style="stroke:#181818;stroke-width:0.5;" width="125" x="72.5" y="413"/><line style="stroke:#181818;stroke-width:0.5;" x1="72.5" x2="197.5" y1="439.2969" y2="439.2969"/><text fill="#000000" font-family="sans-serif" font-size="14" lengthAdjust="spacing" textLength="105" x="82.5" y="430.9951">Uitwerken RFC</text><text fill="#000000" font-family="sans-serif" font-size="12" lengthAdjust="spacing" textLength="101" x="77.5" y="455.4355">RFC aanvullen en</text></g><g id="Referentiegroep.Gereed"><rect fill="#90EE90" height="64.2344" rx="12.5" ry="12.5" style="stroke:#181818;stroke-width:0.5;" width="228" x="373" y="265"/><line style="stroke:#181818;stroke-width:0.5;" x1="373" x2="601" y1="291.2969" y2="291.2969"/><text fill="#000000" font-family="sans-serif" font-size="14" lengthAdjust="spacing" textLength="53" x="460.5" y="282.9951">Gereed</text><text fill="#000000" font-family="sans-serif" font-size="12" lengthAdjust="spacing" textLength="204" x="378" y="307.4355">RFC compleet en kan opgenomen</text><text fill="#000000" font-family="sans-serif" font-size="12" lengthAdjust="spacing" textLength="137" x="378" y="321.4043">worden in een release</text></g><g id="elem_refgrp_besluit"><polygon fill="#F1F1F1" points="670,285,682,297,670,309,658,297,670,285" style="stroke:#181818;stroke-width:0.5;"/></g><g id="Referentiegroep.Vervallen"><rect fill="#F08080" height="64.2344" rx="12.5" ry="12.5" style="stroke:#181818;stroke-width:0.5;" width="138" x="235" y="406"/><line style="stroke:#181818;stroke-width:0.5;" x1="235" x2="373" y1="432.2969" y2="432.2969"/><text fill="#000000" font-family="sans-serif" font-size="14" lengthAdjust="spacing" textLength="67" x="270.5" y="423.9951">Vervallen</text><text fill="#000000" font-family="sans-serif" font-size="12" lengthAdjust="spacing" textLength="111" x="240" y="448.4355">RFC is vervallen of</text><text fill="#000000" font-family="sans-serif" font-size="12" lengthAdjust="spacing" textLength="118" x="240" y="462.4043">er is een alternatief</text></g><ellipse cx="304" cy="542" fill="none" rx="11" ry="11" style="stroke:#222222;stroke-width:1.0;"/><ellipse cx="304" cy="542" fill="#222222" rx="6" ry="6" style="stroke:#222222;stroke-width:1.0;"/><g id="Backlog"><rect fill="#D3D3D3" height="64.2344" rx="12.5" ry="12.5" style="stroke:#181818;stroke-width:0.5;" width="210" x="354" y="103"/><line style="stroke:#181818;stroke-width:0.5;" x1="354" x2="564" y1="129.2969" y2="129.2969"/><text fill="#000000" font-family="sans-serif" font-size="14" lengthAdjust="spacing" textLength="57" x="430.5" y="120.9951">Backlog</text><text fill="#000000" font-family="sans-serif" font-size="12" lengthAdjust="spacing" textLength="186" x="359" y="145.4355">Verzameling van onderwerpen</text><text fill="#000000" font-family="sans-serif" font-size="12" lengthAdjust="spacing" textLength="82" x="359" y="159.4043">(alleen issue)</text></g><ellipse cx="459" cy="16" fill="#222222" rx="10" ry="10" style="stroke:#222222;stroke-width:1.0;"/><g id="planned"><rect fill="#3CB371" height="64.2344" rx="12.5" ry="12.5" style="stroke:#181818;stroke-width:0.5;" width="186" x="739" y="265"/><line style="stroke:#181818;stroke-width:0.5;" x1="739" x2="925" y1="291.2969" y2="291.2969"/><text fill="#000000" font-family="sans-serif" font-size="14" lengthAdjust="spacing" textLength="119" x="772.5" y="282.9951">Doorvoeren iWlz</text><text fill="#000000" font-family="sans-serif" font-size="12" lengthAdjust="spacing" textLength="99" x="744" y="307.4355">RFC is ingepland</text><text fill="#000000" font-family="sans-serif" font-size="12" lengthAdjust="spacing" textLength="166" x="744" y="321.4043">voor een volgende release</text></g><g id="Informatiemodel"><rect fill="#9370D8" height="64.2344" rx="12.5" ry="12.5" style="stroke:#181818;stroke-width:0.5;" width="234" x="715" y="406"/><line style="stroke:#181818;stroke-width:0.5;" x1="715" x2="949" y1="432.2969" y2="432.2969"/><text fill="#000000" font-family="sans-serif" font-size="14" lengthAdjust="spacing" textLength="121" x="771.5" y="423.9951">Informatiemodel</text><text fill="#000000" font-family="sans-serif" font-size="12" lengthAdjust="spacing" textLength="210" x="720" y="448.4355">RFC is verwerkt in Informatiemodel</text><text fill="#000000" font-family="sans-serif" font-size="12" lengthAdjust="spacing" textLength="148" x="720" y="462.4043">en andere documentatie</text></g><ellipse cx="832" cy="542" fill="none" rx="11" ry="11" style="stroke:#222222;stroke-width:1.0;"/><ellipse cx="832" cy="542" fill="#222222" rx="6" ry="6" style="stroke:#222222;stroke-width:1.0;"/><!--link *start* to Backlog--><g id="link_*start*_Backlog"><path d="M459,26.181 C459,42.504 459,71.268 459,96.929 " fill="none" id="*start*-to-Backlog" style="stroke:#181818;stroke-width:1.0;"/><polygon fill="#181818" points="459,102.929,463,93.929,459,97.929,455,93.929,459,102.929" style="stroke:#181818;stroke-width:1.0;"/><text fill="#000000" font-family="sans-serif" font-size="13" lengthAdjust="spacing" textLength="20" x="460" y="69.0669">01.</text></g><!--link Backlog to Bespreken--><g id="link_Backlog_Bespreken"><path d="M390.624,167.059 C355.602,183.151 312.365,203.301 274,222 C245.8,235.745 220.1291,248.7366 194.0521,262.1556 " fill="none" id="Backlog-to-Bespreken" style="stroke:#181818;stroke-width:1.0;"/><polygon fill="#181818" points="188.717,264.901,198.5498,264.3396,193.1629,262.6132,194.8893,257.2262,188.717,264.901" style="stroke:#181818;stroke-width:1.0;"/><text fill="#000000" font-family="sans-serif" font-size="13" lengthAdjust="spacing" textLength="20" x="326" y="210.0669">02.</text></g><!--link Bespreken to refgrp--><g id="link_Bespreken_refgrp"><path d="M235.087,297 C258.055,297 273.232,297 285.885,297 " fill="none" id="Bespreken-to-refgrp" style="stroke:#181818;stroke-width:1.0;"/><polygon fill="#181818" points="291.885,297,282.885,293,286.885,297,282.885,301,291.885,297" style="stroke:#181818;stroke-width:1.0;"/><text fill="#000000" font-family="sans-serif" font-size="13" lengthAdjust="spacing" textLength="20" x="253.5" y="290.0669">03.</text></g><!--link refgrp to Gereed--><g id="link_refgrp_Gereed"><path d="M316.007,297 C328.571,297 343.664,297 366.826,297 " fill="none" id="refgrp-to-Gereed" style="stroke:#181818;stroke-width:1.0;"/><polygon fill="#181818" points="372.826,297,363.826,293,367.826,297,363.826,301,372.826,297" style="stroke:#181818;stroke-width:1.0;"/><text fill="#000000" font-family="sans-serif" font-size="13" lengthAdjust="spacing" textLength="20" x="334.5" y="290.0669">04.</text></g><!--link refgrp to uitwerken--><g id="link_refgrp_uitwerken"><path d="M297.581,303.279 C275.997,321.032 209.744,375.5247 169.053,408.9917 " fill="none" id="refgrp-to-uitwerken" style="stroke:#181818;stroke-width:1.0;"/><polygon fill="#181818" points="164.419,412.803,173.9109,410.1754,168.2807,409.6269,168.8291,403.9967,164.419,412.803" style="stroke:#181818;stroke-width:1.0;"/><text fill="#000000" font-family="sans-serif" font-size="13" lengthAdjust="spacing" textLength="20" x="231" y="372.0669">05.</text></g><!--link refgrp to Vervallen--><g id="link_refgrp_Vervallen"><path d="M304,309.375 C304,330.253 304,369.349 304,399.944 " fill="none" id="refgrp-to-Vervallen" style="stroke:#181818;stroke-width:1.0;"/><polygon fill="#181818" points="304,405.944,308,396.944,304,400.944,300,396.944,304,405.944" style="stroke:#181818;stroke-width:1.0;"/><text fill="#000000" font-family="sans-serif" font-size="13" lengthAdjust="spacing" textLength="20" x="305" y="372.0669">06.</text></g><!--reverse link Bespreken to uitwerken--><g id="link_Bespreken_uitwerken"><path d="M130.6056,335.1884 C131.6966,360.4824 132.955,389.625 133.956,412.82 " fill="none" id="Bespreken-backto-uitwerken" style="stroke:#181818;stroke-width:1.0;"/><polygon fill="#181818" points="130.347,329.194,126.7385,338.358,130.5625,334.1894,134.7311,338.0133,130.347,329.194" style="stroke:#181818;stroke-width:1.0;"/></g><!--link Gereed to refgrp_besluit--><g id="link_Gereed_refgrp_besluit"><path d="M601.076,297 C624.266,297 639.392,297 651.975,297 " fill="none" id="Gereed-to-refgrp_besluit" style="stroke:#181818;stroke-width:1.0;"/><polygon fill="#181818" points="657.975,297,648.975,293,652.975,297,648.975,301,657.975,297" style="stroke:#181818;stroke-width:1.0;"/><text fill="#000000" font-family="sans-serif" font-size="13" lengthAdjust="spacing" textLength="20" x="619.5" y="290.0669">07.</text></g><!--reverse link Backlog to refgrp_besluit--><g id="link_Backlog_refgrp_besluit"><path d="M538.1667,169.673 C566.6887,183.839 593.028,199.785 618,222 C640.759,242.247 658.887,274.304 666.332,288.644 " fill="none" id="Backlog-backto-refgrp_besluit" style="stroke:#181818;stroke-width:1.0;"/><polygon fill="#181818" points="532.793,167.004,539.0743,174.5899,537.2711,169.2281,542.6329,167.425,532.793,167.004" style="stroke:#181818;stroke-width:1.0;"/><text fill="#000000" font-family="sans-serif" font-size="13" lengthAdjust="spacing" textLength="20" x="608" y="210.0669">09.</text></g><!--link Vervallen to *end*Referentiegroep--><g id="link_Vervallen_*end*Referentiegroep"><path d="M304,470.158 C304,490.7801 304,510.5308 304,524.611 " fill="none" id="Vervallen-to-*end*Referentiegroep" style="stroke:#181818;stroke-width:1.0;"/><polygon fill="#181818" points="304,530.611,308,521.611,304,525.611,300,521.611,304,530.611" style="stroke:#181818;stroke-width:1.0;"/></g><!--link refgrp_besluit to planned--><g id="link_refgrp_besluit_planned"><path d="M682.176,297 C694.906,297 710.139,297 732.675,297 " fill="none" id="refgrp_besluit-to-planned" style="stroke:#181818;stroke-width:1.0;"/><polygon fill="#181818" points="738.675,297,729.675,293,733.675,297,729.675,301,738.675,297" style="stroke:#181818;stroke-width:1.0;"/><text fill="#000000" font-family="sans-serif" font-size="13" lengthAdjust="spacing" textLength="20" x="700.5" y="290.0669">08.</text></g><!--link planned to Informatiemodel--><g id="link_planned_Informatiemodel"><path d="M832,329.194 C832,352.087 832,377.042 832,399.91 " fill="none" id="planned-to-Informatiemodel" style="stroke:#181818;stroke-width:1.0;"/><polygon fill="#181818" points="832,405.91,836,396.91,832,400.91,828,396.91,832,405.91" style="stroke:#181818;stroke-width:1.0;"/><text fill="#000000" font-family="sans-serif" font-size="13" lengthAdjust="spacing" textLength="20" x="833" y="372.0669">10.</text></g><!--link Informatiemodel to *end*--><g id="link_Informatiemodel_*end*"><path d="M832,470.158 C832,490.7801 832,510.5308 832,524.611 " fill="none" id="Informatiemodel-to-*end*" style="stroke:#181818;stroke-width:1.0;"/><polygon fill="#181818" points="832,530.611,836,521.611,832,525.611,828,521.611,832,530.611" style="stroke:#181818;stroke-width:1.0;"/></g><!--SRC=[RLDhRzD04FpkNx5AlxH8ZbeU1Q8e7r94XGGIAe8A0KA7lNQFdE-iywCYYF_UMJykZgaLoT7DtixipBggLSsqLSdEk9nEtklyhhxswW-jw0lxlIhOQ9jJgomvcxA_Pr-ofU_sL1d3-AUhgk6pAA9lJtvG76z2hnMTNooZgEe8RZXZpxRMd7l79PrSEMypuz1kQngcln7XwMktN9MUT-ZTov625TtgttkTGqlLGfVZ7PrgIucp2PVr6GIrplavpwIhvopt9QtNoPtJ2Mys4spnMTTG8fGtRwyMf2fgmaaluYiRgCLGA22bRDjWV4luJVfSWvlJuABOqrz8N572hLhgTs9bcRDrHMValVEf-8XcU7ash2h-J_ZFNrmPY7fy04JLgavGpmrtbHcuTKLjW5q6HlPoA6pArEojWbrPrBKRm-k233aWogVB7WzdA1Wi1VfisLyVJe0DLW1xlfn11sk1lZX60Hzc0NmvD3xSYPjoggs71xQWARY55YzxXgFnrd7yIENhWUoWGFHWhwD_unultc3BMYSxHlhMxBjTAOsoLdB_mAbkYa-ifjd3QcmjIr4whgcWhJDOWfH3v0F3EvivNqWcXKlPBCQs7nkF7JeALIofPNDcToHZX2lVArFgaWQRLWiwJIbC7djP6KmwpW4hNlMcZIVYmunZHHVdWrzpzi6r1m00]--></g></svg>