<?xml version="1.0" encoding="us-ascii" standalone="no"?><svg xmlns="http://www.w3.org/2000/svg" xmlns:xlink="http://www.w3.org/1999/xlink" contentStyleType="text/css" height="862px" preserveAspectRatio="none" style="width:960px;height:862px;background:#FFFFFF;" version="1.1" viewBox="0 0 960 862" width="960px" zoomAndPan="magnify"><defs/><g><!--cluster adviesgrp--><g id="cluster_adviesgrp"><path d="M268,484 L934,484 A12.5,12.5 0 0 1 946.5,496.5 L946.5,505.2969 L255.5,505.2969 L255.5,496.5 A12.5,12.5 0 0 1 268,484 " fill="#6495ED" style="stroke:#6495ED;stroke-width:1.0;"/><rect fill="none" height="372" rx="12.5" ry="12.5" style="stroke:#181818;stroke-width:0.5;" width="691" x="255.5" y="484"/><line style="stroke:#181818;stroke-width:0.5;" x1="255.5" x2="946.5" y1="505.2969" y2="505.2969"/><text fill="#000000" font-family="sans-serif" font-size="14" lengthAdjust="spacing" textLength="215" x="493.5" y="500.9951">Referentiegroep / Werkgroep</text></g><g id="adviesgrp.Bespreken"><rect fill="#ADD8E6" height="64.2344" rx="12.5" ry="12.5" style="stroke:#181818;stroke-width:0.5;" width="212" x="271.5" y="538"/><line style="stroke:#181818;stroke-width:0.5;" x1="271.5" x2="483.5" y1="564.2969" y2="564.2969"/><text fill="#000000" font-family="sans-serif" font-size="14" lengthAdjust="spacing" textLength="78" x="338.5" y="555.9951">Bespreken</text><text fill="#000000" font-family="sans-serif" font-size="12" lengthAdjust="spacing" textLength="188" x="276.5" y="580.4355">Wijzigingsverzoek (in concept)</text><text fill="#000000" font-family="sans-serif" font-size="12" lengthAdjust="spacing" textLength="110" x="276.5" y="594.4043">voor Adviesgroep</text></g><g id="elem_refgrp"><polygon fill="#F1F1F1" points="552.5,558,564.5,570,552.5,582,540.5,570,552.5,558" style="stroke:#181818;stroke-width:0.5;"/></g><g id="adviesgrp.uitwerken"><rect fill="#FFFFE0" height="50.2656" rx="12.5" ry="12.5" style="stroke:#181818;stroke-width:0.5;" width="125" x="321" y="693"/><line style="stroke:#181818;stroke-width:0.5;" x1="321" x2="446" y1="719.2969" y2="719.2969"/><text fill="#000000" font-family="sans-serif" font-size="14" lengthAdjust="spacing" textLength="105" x="331" y="710.9951">Uitwerken RFC</text><text fill="#000000" font-family="sans-serif" font-size="12" lengthAdjust="spacing" textLength="101" x="326" y="735.4355">RFC aanvullen en</text></g><g id="adviesgrp.Gereed"><rect fill="#90EE90" height="64.2344" rx="12.5" ry="12.5" style="stroke:#181818;stroke-width:0.5;" width="228" x="621.5" y="538"/><line style="stroke:#181818;stroke-width:0.5;" x1="621.5" x2="849.5" y1="564.2969" y2="564.2969"/><text fill="#000000" font-family="sans-serif" font-size="14" lengthAdjust="spacing" textLength="53" x="709" y="555.9951">Gereed</text><text fill="#000000" font-family="sans-serif" font-size="12" lengthAdjust="spacing" textLength="204" x="626.5" y="580.4355">RFC compleet en kan opgenomen</text><text fill="#000000" font-family="sans-serif" font-size="12" lengthAdjust="spacing" textLength="137" x="626.5" y="594.4043">worden in een release</text></g><g id="elem_refgrp_besluit"><polygon fill="#F1F1F1" points="918.5,558,930.5,570,918.5,582,906.5,570,918.5,558" style="stroke:#181818;stroke-width:0.5;"/></g><g id="adviesgrp.Vervallen"><rect fill="#F08080" height="64.2344" rx="12.5" ry="12.5" style="stroke:#181818;stroke-width:0.5;" width="138" x="483.5" y="686"/><line style="stroke:#181818;stroke-width:0.5;" x1="483.5" x2="621.5" y1="712.2969" y2="712.2969"/><text fill="#000000" font-family="sans-serif" font-size="14" lengthAdjust="spacing" textLength="67" x="519" y="703.9951">Vervallen</text><text fill="#000000" font-family="sans-serif" font-size="12" lengthAdjust="spacing" textLength="111" x="488.5" y="728.4355">RFC is vervallen of</text><text fill="#000000" font-family="sans-serif" font-size="12" lengthAdjust="spacing" textLength="118" x="488.5" y="742.4043">er is een alternatief</text></g><ellipse cx="552.5" cy="829" fill="none" rx="11" ry="11" style="stroke:#222222;stroke-width:1.0;"/><ellipse cx="552.5" cy="829" fill="#222222" rx="6" ry="6" style="stroke:#222222;stroke-width:1.0;"/><g id="Nieuw"><rect fill="#F1F1F1" height="50.2656" rx="12.5" ry="12.5" style="stroke:#181818;stroke-width:0.5;" width="243" x="620" y="103"/><line style="stroke:#181818;stroke-width:0.5;" x1="620" x2="863" y1="129.2969" y2="129.2969"/><text fill="#000000" font-family="sans-serif" font-size="14" lengthAdjust="spacing" textLength="42" x="720.5" y="120.9951">Nieuw</text><text fill="#000000" font-family="sans-serif" font-size="12" lengthAdjust="spacing" textLength="223" x="625" y="145.4355">Nieuw binnengekomen onderwerpen</text></g><g id="Backlog"><rect fill="#D3D3D3" height="64.2344" rx="12.5" ry="12.5" style="stroke:#181818;stroke-width:0.5;" width="210" x="636.5" y="230"/><line style="stroke:#181818;stroke-width:0.5;" x1="636.5" x2="846.5" y1="256.2969" y2="256.2969"/><text fill="#000000" font-family="sans-serif" font-size="14" lengthAdjust="spacing" textLength="57" x="713" y="247.9951">Backlog</text><text fill="#000000" font-family="sans-serif" font-size="12" lengthAdjust="spacing" textLength="186" x="641.5" y="272.4355">Verzameling van onderwerpen</text><text fill="#000000" font-family="sans-serif" font-size="12" lengthAdjust="spacing" textLength="82" x="641.5" y="286.4043">(alleen issue)</text></g><g id="elem_grpchoice"><polygon fill="#F1F1F1" points="603.5,384,615.5,396,603.5,408,591.5,396,603.5,384" style="stroke:#181818;stroke-width:0.5;"/></g><g id="TEG"><rect fill="#A9A9A9" height="50.2656" rx="12.5" ry="12.5" style="stroke:#181818;stroke-width:0.5;" width="273" x="283" y="371"/><line style="stroke:#181818;stroke-width:0.5;" x1="283" x2="556" y1="397.2969" y2="397.2969"/><text fill="#000000" font-family="sans-serif" font-size="14" lengthAdjust="spacing" textLength="29" x="405" y="388.9951">TEG</text><text fill="#000000" font-family="sans-serif" font-size="12" lengthAdjust="spacing" textLength="253" x="288" y="413.4355">Onderwerp voor Technische Expertgroep</text></g><g id="Bevinding"><rect fill="#FF4500" height="50.2656" rx="12.5" ry="12.5" style="stroke:#181818;stroke-width:0.5;" width="241" x="7" y="371"/><line style="stroke:#181818;stroke-width:0.5;" x1="7" x2="248" y1="397.2969" y2="397.2969"/><text fill="#000000" font-family="sans-serif" font-size="14" lengthAdjust="spacing" textLength="71" x="92" y="388.9951">Bevinding</text><text fill="#000000" font-family="sans-serif" font-size="12" lengthAdjust="spacing" textLength="221" x="12" y="413.4355">Bevindingen worden direct opgelost</text></g><ellipse cx="741.5" cy="16" fill="#222222" rx="10" ry="10" style="stroke:#222222;stroke-width:1.0;"/><g id="planned"><rect fill="#3CB371" height="64.2344" rx="12.5" ry="12.5" style="stroke:#181818;stroke-width:0.5;" width="218" x="18.5" y="538"/><line style="stroke:#181818;stroke-width:0.5;" x1="18.5" x2="236.5" y1="564.2969" y2="564.2969"/><text fill="#000000" font-family="sans-serif" font-size="14" lengthAdjust="spacing" textLength="119" x="68" y="555.9951">Doorvoeren iWlz</text><text fill="#000000" font-family="sans-serif" font-size="12" lengthAdjust="spacing" textLength="99" x="23.5" y="580.4355">RFC is ingepland</text><text fill="#000000" font-family="sans-serif" font-size="12" lengthAdjust="spacing" textLength="198" x="23.5" y="594.4043">voor publicatie en implementatie</text></g><g id="Roadmap"><rect fill="#9370D8" height="78.2031" rx="12.5" ry="12.5" style="stroke:#181818;stroke-width:0.5;" width="161" x="47" y="679"/><line style="stroke:#181818;stroke-width:0.5;" x1="47" x2="208" y1="705.2969" y2="705.2969"/><text fill="#000000" font-family="sans-serif" font-size="14" lengthAdjust="spacing" textLength="102" x="76.5" y="696.9951">iWlz Roadmap</text><text fill="#000000" font-family="sans-serif" font-size="12" lengthAdjust="spacing" textLength="103" x="52" y="721.4355">RFC opnemen op</text><text fill="#000000" font-family="sans-serif" font-size="12" lengthAdjust="spacing" textLength="132" x="52" y="735.4043">project iWlz Roadmap</text><text fill="#000000" font-family="sans-serif" font-size="12" lengthAdjust="spacing" textLength="141" x="52" y="749.373">voor realisatie planning</text></g><ellipse cx="127.5" cy="829" fill="none" rx="11" ry="11" style="stroke:#222222;stroke-width:1.0;"/><ellipse cx="127.5" cy="829" fill="#222222" rx="6" ry="6" style="stroke:#222222;stroke-width:1.0;"/><!--link *start* to Nieuw--><g id="link_*start*_Nieuw"><path d="M741.5,26.002 C741.5,42.627 741.5,72.655 741.5,96.873 " fill="none" id="*start*-to-Nieuw" style="stroke:#181818;stroke-width:1.0;"/><polygon fill="#181818" points="741.5,102.873,745.5,93.873,741.5,97.873,737.5,93.873,741.5,102.873" style="stroke:#181818;stroke-width:1.0;"/><text fill="#000000" font-family="sans-serif" font-size="13" lengthAdjust="spacing" textLength="20" x="742.5" y="69.0669">00.</text></g><!--link Nieuw to Backlog--><g id="link_Nieuw_Backlog"><path d="M741.5,153.211 C741.5,174.795 741.5,200.509 741.5,223.953 " fill="none" id="Nieuw-to-Backlog" style="stroke:#181818;stroke-width:1.0;"/><polygon fill="#181818" points="741.5,229.953,745.5,220.953,741.5,224.953,737.5,220.953,741.5,229.953" style="stroke:#181818;stroke-width:1.0;"/><text fill="#000000" font-family="sans-serif" font-size="13" lengthAdjust="spacing" textLength="20" x="742.5" y="196.0669">01.</text></g><!--link Backlog to grpchoice--><g id="link_Backlog_grpchoice"><path d="M708.796,294.282 C675.32,326.302 630.247,369.4168 613.571,385.3668 " fill="none" id="Backlog-to-grpchoice" style="stroke:#181818;stroke-width:1.0;"/><polygon fill="#181818" points="609.235,389.514,618.5038,386.1838,612.8483,386.058,612.9742,380.4025,609.235,389.514" style="stroke:#181818;stroke-width:1.0;"/><text fill="#000000" font-family="sans-serif" font-size="13" lengthAdjust="spacing" textLength="16" x="677.5" y="337.0669">02</text></g><!--reverse link TEG to grpchoice--><g id="link_TEG_grpchoice"><path d="M562.062,396 C573.798,396 579.534,396 591.27,396 " fill="none" id="TEG-backto-grpchoice" style="stroke:#181818;stroke-width:1.0;"/><polygon fill="#181818" points="556.062,396,565.062,400,561.062,396,565.062,392,556.062,396" style="stroke:#181818;stroke-width:1.0;"/></g><!--reverse link Bevinding to grpchoice--><g id="link_Bevinding_grpchoice"><path d="M180.4323,368.3651 C210.4773,353.9741 245.229,339.915 283,332.5 C402.061,309.127 447.51,278.17 556,332.5 C578.897,343.966 593.597,372.292 599.924,386.925 " fill="none" id="Bevinding-backto-grpchoice" style="stroke:#181818;stroke-width:1.0;"/><polygon fill="#181818" points="175.021,370.957,184.8659,370.6767,179.5304,368.7971,181.41,363.4616,175.021,370.957" style="stroke:#181818;stroke-width:1.0;"/></g><!--link grpchoice to Bespreken--><g id="link_grpchoice_Bespreken"><path d="M597.104,402.202 C591.058,407.099 581.715,414.614 573.5,421 C520.814,461.953 464.1062,504.5586 424.2432,534.2796 " fill="none" id="grpchoice-to-Bespreken" style="stroke:#181818;stroke-width:1.0;"/><polygon fill="#181818" points="419.433,537.866,429.0392,535.6932,423.4415,534.8774,424.2574,529.2796,419.433,537.866" style="stroke:#181818;stroke-width:1.0;"/></g><!--link Bespreken to refgrp--><g id="link_Bespreken_refgrp"><path d="M483.587,570 C506.555,570 521.732,570 534.385,570 " fill="none" id="Bespreken-to-refgrp" style="stroke:#181818;stroke-width:1.0;"/><polygon fill="#181818" points="540.385,570,531.385,566,535.385,570,531.385,574,540.385,570" style="stroke:#181818;stroke-width:1.0;"/><text fill="#000000" font-family="sans-serif" font-size="13" lengthAdjust="spacing" textLength="20" x="502" y="563.0669">03.</text></g><!--link refgrp to Gereed--><g id="link_refgrp_Gereed"><path d="M564.507,570 C577.071,570 592.164,570 615.326,570 " fill="none" id="refgrp-to-Gereed" style="stroke:#181818;stroke-width:1.0;"/><polygon fill="#181818" points="621.326,570,612.326,566,616.326,570,612.326,574,621.326,570" style="stroke:#181818;stroke-width:1.0;"/><text fill="#000000" font-family="sans-serif" font-size="13" lengthAdjust="spacing" textLength="20" x="583" y="563.0669">04.</text></g><!--link refgrp to uitwerken--><g id="link_refgrp_uitwerken"><path d="M546.485,576.196 C525.141,594.636 456.6763,653.7826 415.9933,688.9286 " fill="none" id="refgrp-to-uitwerken" style="stroke:#181818;stroke-width:1.0;"/><polygon fill="#181818" points="411.453,692.851,420.8785,689.9943,415.2366,689.5823,415.6486,683.9405,411.453,692.851" style="stroke:#181818;stroke-width:1.0;"/><text fill="#000000" font-family="sans-serif" font-size="13" lengthAdjust="spacing" textLength="20" x="479.5" y="645.0669">05.</text></g><!--link refgrp to Vervallen--><g id="link_refgrp_Vervallen"><path d="M552.5,582.456 C552.5,604.505 552.5,647.521 552.5,679.903 " fill="none" id="refgrp-to-Vervallen" style="stroke:#181818;stroke-width:1.0;"/><polygon fill="#181818" points="552.5,685.903,556.5,676.903,552.5,680.903,548.5,676.903,552.5,685.903" style="stroke:#181818;stroke-width:1.0;"/><text fill="#000000" font-family="sans-serif" font-size="13" lengthAdjust="spacing" textLength="20" x="553.5" y="645.0669">06.</text></g><!--reverse link Bespreken to uitwerken--><g id="link_Bespreken_uitwerken"><path d="M379.0334,608.3159 C380.1494,635.4629 381.494,668.181 382.512,692.95 " fill="none" id="Bespreken-backto-uitwerken" style="stroke:#181818;stroke-width:1.0;"/><polygon fill="#181818" points="378.787,602.321,375.16,611.4777,378.9924,607.3168,383.1533,611.1491,378.787,602.321" style="stroke:#181818;stroke-width:1.0;"/></g><!--link Gereed to refgrp_besluit--><g id="link_Gereed_refgrp_besluit"><path d="M849.576,570 C872.766,570 887.892,570 900.475,570 " fill="none" id="Gereed-to-refgrp_besluit" style="stroke:#181818;stroke-width:1.0;"/><polygon fill="#181818" points="906.475,570,897.475,566,901.475,570,897.475,574,906.475,570" style="stroke:#181818;stroke-width:1.0;"/><text fill="#000000" font-family="sans-serif" font-size="13" lengthAdjust="spacing" textLength="20" x="868" y="563.0669">07.</text></g><!--reverse link Backlog to refgrp_besluit--><g id="link_Backlog_refgrp_besluit"><path d="M763.4932,299.3502 C788.4222,340.6942 830.384,410.858 867.5,476 C885.55,507.679 906.187,545.988 914.612,561.72 " fill="none" id="Backlog-backto-refgrp_besluit" style="stroke:#181818;stroke-width:1.0;"/><polygon fill="#181818" points="760.395,294.212,761.6168,303.9848,762.9768,298.4939,768.4677,299.8539,760.395,294.212" style="stroke:#181818;stroke-width:1.0;"/><text fill="#000000" font-family="sans-serif" font-size="13" lengthAdjust="spacing" textLength="20" x="835.5" y="400.5669">09.</text></g><!--link Vervallen to *end*adviesgrp--><g id="link_Vervallen_*end*adviesgrp"><path d="M552.5,750.235 C552.5,773.008 552.5,796.4527 552.5,811.7509 " fill="none" id="Vervallen-to-*end*adviesgrp" style="stroke:#181818;stroke-width:1.0;"/><polygon fill="#181818" points="552.5,817.7509,556.5,808.7509,552.5,812.7509,548.5,808.7509,552.5,817.7509" style="stroke:#181818;stroke-width:1.0;"/></g><!--link refgrp_besluit to planned--><g id="link_refgrp_besluit_planned"><path d="M916.383,560.003 C911.612,540.308 897.971,496.853 867.5,479 C808.829,444.625 320.279,458.32 255.5,479 C219.266,490.567 189.0154,512.5841 164.8884,533.8361 " fill="none" id="refgrp_besluit-to-planned" style="stroke:#181818;stroke-width:1.0;"/><polygon fill="#181818" points="160.386,537.802,169.7835,534.8548,164.138,534.4971,164.4957,528.8516,160.386,537.802" style="stroke:#181818;stroke-width:1.0;"/><text fill="#000000" font-family="sans-serif" font-size="13" lengthAdjust="spacing" textLength="20" x="341.5" y="464.0669">08.</text></g><!--link Bevinding to planned--><g id="link_Bevinding_planned"><path d="M127.5,421.279 C127.5,451.837 127.5,498.37 127.5,531.857 " fill="none" id="Bevinding-to-planned" style="stroke:#181818;stroke-width:1.0;"/><polygon fill="#181818" points="127.5,537.857,131.5,528.857,127.5,532.857,123.5,528.857,127.5,537.857" style="stroke:#181818;stroke-width:1.0;"/></g><!--link planned to Roadmap--><g id="link_planned_Roadmap"><path d="M127.5,602.321 C127.5,624.776 127.5,649.144 127.5,672.989 " fill="none" id="planned-to-Roadmap" style="stroke:#181818;stroke-width:1.0;"/><polygon fill="#181818" points="127.5,678.989,131.5,669.989,127.5,673.989,123.5,669.989,127.5,678.989" style="stroke:#181818;stroke-width:1.0;"/><text fill="#000000" font-family="sans-serif" font-size="13" lengthAdjust="spacing" textLength="20" x="128.5" y="645.0669">10.</text></g><!--link Roadmap to *end*--><g id="link_Roadmap_*end*"><path d="M127.5,757.123 C127.5,778.7327 127.5,798.1295 127.5,811.8922 " fill="none" id="Roadmap-to-*end*" style="stroke:#181818;stroke-width:1.0;"/><polygon fill="#181818" points="127.5,817.8922,131.5,808.8922,127.5,812.8922,123.5,808.8922,127.5,817.8922" style="stroke:#181818;stroke-width:1.0;"/></g><!--SRC=[RLHTRzGm47pFhrZrNbga72tVLDL9z8E-K8gEGeKeGhvaB-V6PrjsaeCY_ZlZn4ckjAUJudZNkxCp4_jAL4mV9TSREepFXTIQTS6bMRCcetDs6tQMTUBRx6EHbSeKDFaWYrLrxiHl7FtAxawiMKbTK2Fk7QCRlIkKOgoazpNlnJg5izdAo8pfwAXRp6OnT7LsJfDJuSfO_RAlHeqnZguuMsdfinNJsI_BhYgSOTl3uqRgFE2ON3g1EUQSeyIm3HWRut8ySkaugyZOWfNnLP8atv_ye3IT3OJixq-JRXrs-y6nVp1D-hSqDnkDw3WEui-IyJLLlAoGWA4UsHrmeNsSO6VEItQiAydjOFIKhjcLxNg7X2UHDv8zQj7an3YzL0RS7AkQwKz2-FL4UEkunA2TKY7XaAxbxPqiqCytaCnmIRjIKsPqnhRQWrOjm-zYXq3hMD7nCZJTackCxNoH5L24TlFt9otCUjZf07nZ1QIW1maaX6vgk48J_bjrpZ4v1ElD5LpJ7SZCsi94LSWlWyCWcsujUgEZe1Wav3jMB3m_0FvpmLu1rEC3mC6DQ05rlS6iKB6tzDGCORD4HtPXCtGJgcAd1SHQ9csvBOrRVQCANN0K1R789_poVDg5umvYaGV4Nap_2usy8lhoVXJXSH24NyN2uvcqjWzXnMu3fe4gb7ZTTUZWHzCVfUaZcMzZin51m8EFAlaxUFiKzcfCi3V9QtNN6iKgWIi7ebzmBklrPnRRmeFdyDc6fBptfwqNIcQ1z6076Pm19rHXOukE0LlgWgB0qdS2s3VJA4X_NQHZV40R8DBSY7mjkaylhdkedsg7rX6eiPhRAzC2fdNcDjmksnLwz8w5ahv5tpOCNt_0qgCBIEAHGph07TJHsbU9fFu3]--></g></svg>